<svg width="315" xmlns="http://www.w3.org/2000/svg" height="316" fill="none"><g class="fills"><rect rx="0" ry="0" width="315" height="315" transform="matrix(1.000000, 0.000000, 0.000000, 1.000000, 0.000000, 0.000000)" class="frame-background"/></g><g class="frame-children"><rect rx="20" ry="20" x="48" y="49" transform="matrix(1.000000, 0.000000, 0.000000, 1.000000, 0.000000, 0.000000)" width="220" height="220" style="fill: rgb(0, 156, 221); fill-opacity: 1;" class="fills"/><rect rx="3" ry="3" x="118" y="118" transform="matrix(1.000000, 0.000000, 0.000000, 1.000000, 0.000000, 0.000000)" width="80" height="79.747" style="fill: rgb(0, 121, 153); fill-opacity: 1;" class="fills"/><g class="fills"><rect rx="0" ry="0" x="202.5" y="121.5" width="150" height="75" transform="matrix(0.000000, 1.000000, -1.000000, 0.000000, 436.500000, -118.500000)" class="frame-background"/></g><g class="frame-children"><rect rx="6.818" ry="6.818" x="270.682" y="121.5" transform="matrix(0.000000, 1.000000, -1.000000, 0.000000, 436.500000, -118.500000)" width="13.636" height="75" style="fill: rgb(203, 204, 204); fill-opacity: 1;" class="fills"/><rect rx="6.818" ry="6.818" x="270.682" y="87.409" transform="matrix(0.000000, 1.000000, -1.000000, 0.000000, 402.409091, -152.590909)" width="13.636" height="75" style="fill: rgb(203, 204, 204); fill-opacity: 1;" class="fills"/><rect rx="6.818" ry="6.818" x="270.682" y="53.318" transform="matrix(0.000000, 1.000000, -1.000000, 0.000000, 368.318182, -186.681818)" width="13.636" height="75" style="fill: rgb(203, 204, 204); fill-opacity: 1;" class="fills"/><rect rx="6.818" ry="6.818" x="270.682" y="155.591" transform="matrix(0.000000, 1.000000, -1.000000, 0.000000, 470.590909, -84.409091)" width="13.636" height="75" style="fill: rgb(203, 204, 204); fill-opacity: 1;" class="fills"/><rect rx="6.818" ry="6.818" x="270.682" y="189.682" transform="matrix(0.000000, 1.000000, -1.000000, 0.000000, 504.681818, -50.318182)" width="13.636" height="75" style="fill: rgb(203, 204, 204); fill-opacity: 1;" class="fills"/></g><g class="fills"><rect rx="0" ry="0" x="83" width="150" height="75" transform="matrix(1.000000, 0.000000, 0.000000, 1.000000, 0.000000, 0.000000)" class="frame-background"/></g><g class="frame-children"><rect rx="6.818" ry="6.818" x="151.182" transform="matrix(1.000000, 0.000000, 0.000000, 1.000000, 0.000000, 0.000000)" width="13.636" height="75" style="fill: rgb(203, 204, 204); fill-opacity: 1;" class="fills"/><rect rx="6.818" ry="6.818" x="117.091" transform="matrix(1.000000, 0.000000, 0.000000, 1.000000, 0.000000, 0.000000)" width="13.636" height="75" style="fill: rgb(203, 204, 204); fill-opacity: 1;" class="fills"/><rect rx="6.818" ry="6.818" x="83" transform="matrix(1.000000, 0.000000, 0.000000, 1.000000, 0.000000, 0.000000)" width="13.636" height="75" style="fill: rgb(203, 204, 204); fill-opacity: 1;" class="fills"/><rect rx="6.818" ry="6.818" x="185.273" transform="matrix(1.000000, 0.000000, 0.000000, 1.000000, 0.000000, 0.000000)" width="13.636" height="75" style="fill: rgb(203, 204, 204); fill-opacity: 1;" class="fills"/><rect rx="6.818" ry="6.818" x="219.364" transform="matrix(1.000000, 0.000000, 0.000000, 1.000000, 0.000000, 0.000000)" width="13.636" height="75" style="fill: rgb(203, 204, 204); fill-opacity: 1;" class="fills"/></g><g class="fills"><rect rx="0" ry="0" x="83" y="241" width="150" height="75" transform="matrix(1.000000, 0.000000, 0.000000, 1.000000, 0.000000, 0.000000)" class="frame-background"/></g><g class="frame-children"><rect rx="6.818" ry="6.818" x="151.182" y="241" transform="matrix(1.000000, 0.000000, 0.000000, 1.000000, 0.000000, 0.000000)" width="13.636" height="75" style="fill: rgb(203, 204, 204); fill-opacity: 1;" class="fills"/><rect rx="6.818" ry="6.818" x="117.091" y="241" transform="matrix(1.000000, 0.000000, 0.000000, 1.000000, 0.000000, 0.000000)" width="13.636" height="75" style="fill: rgb(203, 204, 204); fill-opacity: 1;" class="fills"/><rect rx="6.818" ry="6.818" x="83" y="241" transform="matrix(1.000000, 0.000000, 0.000000, 1.000000, 0.000000, 0.000000)" width="13.636" height="75" style="fill: rgb(203, 204, 204); fill-opacity: 1;" class="fills"/><rect rx="6.818" ry="6.818" x="185.273" y="241" transform="matrix(1.000000, 0.000000, 0.000000, 1.000000, 0.000000, 0.000000)" width="13.636" height="75" style="fill: rgb(203, 204, 204); fill-opacity: 1;" class="fills"/><rect rx="6.818" ry="6.818" x="219.364" y="241" transform="matrix(1.000000, 0.000000, 0.000000, 1.000000, 0.000000, 0.000000)" width="13.636" height="75" style="fill: rgb(203, 204, 204); fill-opacity: 1;" class="fills"/></g><g class="fills"><rect rx="0" ry="0" x="-37.5" y="121.5" width="150" height="75" transform="matrix(0.000000, 1.000000, -1.000000, 0.000000, 196.500000, 121.500000)" class="frame-background"/></g><g class="frame-children"><rect rx="6.818" ry="6.818" x="30.682" y="121.5" transform="matrix(0.000000, 1.000000, -1.000000, 0.000000, 196.500000, 121.500000)" width="13.636" height="75" style="fill: rgb(203, 204, 204); fill-opacity: 1;" class="fills"/><rect rx="6.818" ry="6.818" x="30.682" y="87.409" transform="matrix(0.000000, 1.000000, -1.000000, 0.000000, 162.409091, 87.409091)" width="13.636" height="75" style="fill: rgb(203, 204, 204); fill-opacity: 1;" class="fills"/><rect rx="6.818" ry="6.818" x="30.682" y="53.318" transform="matrix(0.000000, 1.000000, -1.000000, 0.000000, 128.318182, 53.318182)" width="13.636" height="75" style="fill: rgb(203, 204, 204); fill-opacity: 1;" class="fills"/><rect rx="6.818" ry="6.818" x="30.682" y="155.591" transform="matrix(0.000000, 1.000000, -1.000000, 0.000000, 230.590909, 155.590909)" width="13.636" height="75" style="fill: rgb(203, 204, 204); fill-opacity: 1;" class="fills"/><rect rx="6.818" ry="6.818" x="30.682" y="189.682" transform="matrix(0.000000, 1.000000, -1.000000, 0.000000, 264.681818, 189.681818)" width="13.636" height="75" style="fill: rgb(203, 204, 204); fill-opacity: 1;" class="fills"/></g></g></svg>